<?xml version="1.0" ?><svg height="96" viewBox="0 0 96 96" width="96" xmlns="http://www.w3.org/2000/svg"><defs><style>.cls-1{fill:#ebf4ff;}.cls-2{fill:#d5e3ee;}.cls-3{fill:none;stroke:#283d54;stroke-linecap:round;stroke-linejoin:round;stroke-width:2px;}.cls-4{fill:#fc9a9a;}.cls-5{fill:#fff;}</style></defs><title/><g data-name="19.Emoji-Dead" id="_19.Emoji-Dead"><circle class="cls-1" cx="48" cy="48" r="47"/><ellipse class="cls-2" cx="27" cy="51.5" rx="10" ry="3.5"/><ellipse class="cls-2" cx="69" cy="51.5" rx="10" ry="3.5"/><g data-name="&lt;Group&gt;" id="_Group_"><path class="cls-3" d="M18,84.183a46.869,46.869,0,1,1,4,2.978"/></g><g data-name="&lt;Group&gt;" id="_Group_2"><path class="cls-4" d="M48,71a15.389,15.389,0,0,1,8,2c0,8.84-3.48,5-9,5s-7,3.84-7-5A15.389,15.389,0,0,1,48,71Z"/><path class="cls-5" d="M56,73a15.389,15.389,0,0,0-8-2,15.389,15.389,0,0,0-8,2c0-8.84,2.48-16,8-16S56,64.16,56,73Z"/><path class="cls-3" d="M56,73c0,8.84-3.48,5-9,5s-7,3.84-7-5,2.48-16,8-16S56,64.16,56,73Z"/><path class="cls-3" d="M40,73a15.389,15.389,0,0,1,8-2,15.389,15.389,0,0,1,8,2"/></g><line class="cls-3" x1="19" x2="19" y1="50" y2="56"/><line class="cls-3" x1="24" x2="24" y1="50" y2="54"/><line class="cls-3" x1="29" x2="29" y1="50" y2="56"/><line class="cls-3" x1="34" x2="34" y1="52" y2="56"/><line class="cls-3" x1="62" x2="62" y1="50" y2="54"/><line class="cls-3" x1="67" x2="67" y1="50" y2="56"/><line class="cls-3" x1="72" x2="72" y1="52" y2="56"/><line class="cls-3" x1="77" x2="77" y1="50" y2="56"/><line class="cls-3" x1="23" x2="35" y1="29" y2="41"/><line class="cls-3" x1="35" x2="23" y1="29" y2="41"/><line class="cls-3" x1="61" x2="73" y1="29" y2="41"/><line class="cls-3" x1="73" x2="61" y1="29" y2="41"/></g></svg>