<?xml version="1.0" ?><svg height="96" viewBox="0 0 96 96" width="96" xmlns="http://www.w3.org/2000/svg"><defs><style>.cls-1{fill:#ebf4ff;}.cls-2{fill:#d5e3ee;}.cls-3{fill:none;stroke:#283d54;stroke-linecap:round;stroke-linejoin:round;stroke-width:2px;}.cls-4{fill:#fff;}.cls-5{fill:#c3d4ef;}.cls-6{fill:#fc9a9a;}</style></defs><title/><g data-name="2.Emoji-Shy" id="_2.Emoji-Shy"><g data-name="&lt;Group&gt;" id="_Group_"><circle class="cls-1" cx="48" cy="48" r="47"/><ellipse class="cls-2" cx="27" cy="51.5" rx="10" ry="3.5"/><ellipse class="cls-2" cx="69" cy="51.5" rx="10" ry="3.5"/><path class="cls-3" d="M18,84.183a46.869,46.869,0,1,1,4,2.978"/></g><g data-name="&lt;Group&gt;" id="_Group_2"><path class="cls-4" d="M79,39c0,5.52-4.48,2-10,2,1.66,0,3-2.69,3-6s-1.34-6-3-6A10,10,0,0,1,79,39Z"/><ellipse class="cls-5" cx="69" cy="35" rx="3" ry="6"/><path class="cls-4" d="M69,29c-1.66,0-3,2.69-3,6s1.34,6,3,6c-5.52,0-10,3.52-10-2A10,10,0,0,1,69,29Z"/><path class="cls-4" d="M37,39c0,5.52-4.48,2-10,2,1.66,0,3-2.69,3-6s-1.34-6-3-6A10,10,0,0,1,37,39Z"/><ellipse class="cls-5" cx="27" cy="35" rx="3" ry="6"/><path class="cls-4" d="M27,29c-1.66,0-3,2.69-3,6s1.34,6,3,6c-5.52,0-10,3.52-10-2A10,10,0,0,1,27,29Z"/><path class="cls-3" d="M27,29A10,10,0,0,1,37,39c0,5.52-4.48,2-10,2s-10,3.52-10-2A10,10,0,0,1,27,29Z"/><path class="cls-3" d="M69,29A10,10,0,0,1,79,39c0,5.52-4.48,2-10,2s-10,3.52-10-2A10,10,0,0,1,69,29Z"/><ellipse class="cls-3" cx="27" cy="35" rx="3" ry="6"/><ellipse class="cls-3" cx="69" cy="35" rx="3" ry="6"/></g><g data-name="&lt;Group&gt;" id="_Group_3"><path class="cls-6" d="M48,71a15.389,15.389,0,0,1,8,2c0,8.84-3.48,5-9,5s-7,3.84-7-5A15.389,15.389,0,0,1,48,71Z"/><path class="cls-4" d="M56,73a15.389,15.389,0,0,0-8-2,15.389,15.389,0,0,0-8,2c0-8.84,2.48-16,8-16S56,64.16,56,73Z"/><path class="cls-3" d="M56,73c0,8.84-3.48,5-9,5s-7,3.84-7-5,2.48-16,8-16S56,64.16,56,73Z"/><path class="cls-3" d="M40,73a15.389,15.389,0,0,1,8-2,15.389,15.389,0,0,1,8,2"/></g><path class="cls-3" d="M74,52c-1.249,0-1.249-2-2.5-2s-1.249,2-2.5,2-1.251-2-2.5-2-1.251,2-2.5,2"/><path class="cls-3" d="M32,52c-1.249,0-1.249-2-2.5-2s-1.249,2-2.5,2-1.251-2-2.5-2-1.251,2-2.5,2"/></g></svg>